Coordinates
version=1
nRows=9
nColumns=24
inDegrees=yes

Units are S.I. units (second, meters, Newtons, ...)
Angles are in degrees.

endheader
time	pelvis_tilt	pelvis_list	pelvis_rotation	pelvis_tx	pelvis_ty	pelvis_tz	hip_flexion_r	hip_adduction_r	hip_rotation_r	knee_angle_r	ankle_angle_r	subtalar_angle_r	mtp_angle_r	hip_flexion_l	hip_adduction_l	hip_rotation_l	knee_angle_l	ankle_angle_l	subtalar_angle_l	mtp_angle_l	lumbar_extension	lumbar_bending	lumbar_rotation
      1.05700000	     -5.11646786	     -1.32537218	      3.47766455	      0.50685979	      0.99875544	      0.34299554	     15.15280040	      4.89935105	      1.98894369	    -20.42151835	     12.48058748	     -8.34593799	      1.58649584	     23.17859228	     -1.52579671	      1.03647385	    -71.30775852	      1.41711083	     -3.52112240	      5.25020341	     -5.96543603	      9.64984891	     -1.79247581
      1.06116667	     -5.08036259	     -1.18788344	      3.31573331	      0.51147146	      0.99958566	      0.34335683	     14.60234126	      4.82494360	      2.19732629	    -19.96961362	     12.49652903	     -8.37602014	      1.59738216	     23.70151795	     -1.49928759	      0.83831032	    -70.90740622	      2.02329185	     -3.23608060	      5.16046834	     -6.04787947	      9.42900385	     -1.46506268
      1.06533333	     -5.06650786	     -1.06633822	      3.15112467	      0.51607740	      1.00035451	      0.34369765	     14.07393623	      4.76387377	      2.42550750	    -19.50773383	     12.45703099	     -8.42711830	      1.61390826	     24.23642511	     -1.48300359	      0.65492554	    -70.46389301	      2.59406476	     -3.02973806	      5.00844315	     -6.12445541	      9.23851731	     -1.12002053
      1.06950000	     -5.02215486	     -0.90171162	      2.98660192	      0.52068228	      1.00113282	      0.34402054	     13.52613015	      4.64975792	      2.62507227	    -19.08274246	     12.50965914	     -8.41732287	      1.62759310	     24.71446870	     -1.42497842	      0.45881381	    -69.95583242	      3.11779361	     -2.79888861	      4.91054110	     -6.22090470	      8.98942486	     -0.89112222
      1.07366667	     -4.99317850	     -0.76664306	      2.81649723	      0.52529298	      1.00186016	      0.34433041	     12.98506780	      4.56415357	      2.84741803	    -18.62777583	     12.48737930	     -8.43394438	      1.64633216	     25.19802193	     -1.39532585	      0.27506150	    -69.41034796	      3.61892086	     -2.63971194	      4.75582468	     -6.31034015	      8.78297645	     -0.56638729
      1.07783333	     -4.96151876	     -0.61896419	      2.65058604	      0.52990358	      1.00254340	      0.34462869	     12.44978182	      4.45911445	      3.05240467	    -18.19485763	     12.53213601	     -8.43122409	      1.65963101	     25.66312141	     -1.35344759	      0.09312942	    -68.81686270	      4.06769255	     -2.45929099	      4.66257305	     -6.38902541	      8.56160113	     -0.35138495
      1.08200000	     -4.92426694	     -0.49075009	      2.47798690	      0.53451873	      1.00319342	      0.34490624	     11.90165686	      4.37018441	      3.26803902	    -17.74068955	     12.52450651	     -8.42657531	      1.67745632	     26.10831453	     -1.32910073	     -0.07937616	    -68.18514190	      4.48705027	     -2.36467514	      4.52551975	     -6.48356788	      8.36415434	     -0.04624601
      1.08616667	     -4.89709771	     -0.32216316	      2.30211527	      0.53913629	      1.00381941	      0.34515139	     11.37910852	      4.22899378	      3.46743804	    -17.32449853	     12.56020012	     -8.38450121	      1.68792550	     26.53650547	     -1.25356052	     -0.25060167	    -67.48421620	      4.84348376	     -2.27705208	      4.45629503	     -6.55177664	      8.15249790	      0.12049690
      1.09033333	     -4.83396415	     -0.18163896	      2.13201362	      0.54378117	      1.00444129	      0.34540503	     10.80185719	      4.11542074	      3.65547630	    -16.87078063	     12.60827628	     -8.35636535	      1.70323706	     26.91626942	     -1.21485236	     -0.41457887	    -66.75421963	      5.16212741	     -2.22998571	      4.35562356	     -6.66425139	      7.92409237	      0.42614168
